<svg id="11567813-e781-4e7f-9d62-924af5cdcf5c" data-name="Layer 1" xmlns="http://www.w3.org/2000/svg" xmlns:xlink="http://www.w3.org/1999/xlink" width="883.34" height="785.3" viewBox="0 0 883.34 785.3"><defs><linearGradient id="de64225e-aed0-4729-9589-fefa50377364" x1="586.34" y1="777.6" x2="586.34" y2="296.43" gradientUnits="userSpaceOnUse"><stop offset="0" stop-color="gray" stop-opacity="0.25"/><stop offset="0.54" stop-color="gray" stop-opacity="0.12"/><stop offset="1" stop-color="gray" stop-opacity="0.1"/></linearGradient><linearGradient id="c2d29fed-0e3c-4665-9fc2-6bc8bc700b9c" x1="665.58" y1="818.95" x2="665.58" y2="130.43" gradientTransform="matrix(-1, 0, 0, 1, 1038, 0)" xlink:href="#de64225e-aed0-4729-9589-fefa50377364"/><linearGradient id="c8cc5a91-18e5-403f-9b97-91f48ba2f890" x1="832.33" y1="380.69" x2="1046.36" y2="380.69" gradientTransform="matrix(-1, 0, 0, 1, 1874, 0)" xlink:href="#de64225e-aed0-4729-9589-fefa50377364"/></defs><title>tasting</title><ellipse cx="428.11" cy="662.98" rx="428.11" ry="122.32" fill="#f5f5f5"/><path d="M818.56,450.17s-53,37.48-39,109-74.44,171.26-74.44,171.26.76,0,2.18,0c95.73-.47,160.12-98.82,122-186.63C815.15,511.16,805.28,474,818.56,450.17Z" transform="translate(-158.33 -57.35)" fill="#348eed"/><path d="M818.56,450.17s-35,51.08-17.27,100.7-25.15,173-96.14,179.56" transform="translate(-158.33 -57.35)" fill="none" stroke="#535461" stroke-miterlimit="10"/><path d="M867.76,647s-50.21-17.07-62.85,28.39S696.6,711,696.6,711s.54.53,1.57,1.48c69.29,64.64,147.12,58.84,147.54-11.15C845.87,675.32,850.57,650,867.76,647Z" transform="translate(-158.33 -57.35)" fill="#348eed"/><path d="M867.76,647s-50.21-17.07-62.85,28.39S696.6,711,696.6,711s.54.53,1.57,1.48c69.29,64.64,147.12,58.84,147.54-11.15C845.87,675.32,850.57,650,867.76,647Z" transform="translate(-158.33 -57.35)" fill="#f5f5f5" opacity="0.2"/><path d="M867.76,647s-41.58,1.93-44.54,38.92S750,755.8,696.6,711" transform="translate(-158.33 -57.35)" fill="none" stroke="#535461" stroke-miterlimit="10"/><path d="M779.61,543.22c3-15,2.31-36.85-22.23-47.49,13.12-21.09,6.95-36-4.91-41.29-.08-5.5-1.52-16.66-11.18-22.65,1.28-10.38,3.36-51.64-43.26-56.26-5.47-9.44-22.59-35-50.48-42.08v-37c-6.72,14.11-49,22.17-49,22.17-48.46,6.77-59.33,34.15-61.78,46.11-6.24.19-11.73,1-14.82,2.94-10.16,6.35-82.68,25.3-77,75.54-1,.34-1.94.68-2.91,1,0,0-39.67,31.65-29,56.82l-4,.29s-23,14.22-15.93,42.24a8.45,8.45,0,0,0-2,7.69l54.69,182.29A5.86,5.86,0,0,0,448,736.7c2.47,1.72,7.6,5.15,15.08,9.31l.06.29.33-.07a245.79,245.79,0,0,0,26.32,12.55l0,.21.33-.06c6.34,2.57,13.29,5.09,20.8,7.41l0,.16.33,0c6.95,2.13,14.37,4.09,22.22,5.75v.1l.33,0c7.37,1.55,15.13,2.83,23.23,3.75v0h.31a246.37,246.37,0,0,0,30,1.52v0h.67v0a246.48,246.48,0,0,0,28.06-2h.33v-.06q11.29-1.46,23.09-4.09l-.08.78.67.07.1-1q11.77-2.68,24-6.69l.33,0,0-.16q10.16-3.37,20.59-7.74l.33.06,0-.22q12.09-5.11,24.5-11.71l.33.07.06-.28q7-3.75,14.11-8a5.88,5.88,0,0,0,2.6-3.36l54.51-182.43a8.46,8.46,0,0,0-2-7.67Z" transform="translate(-158.33 -57.35)" fill="url(#de64225e-aed0-4729-9589-fefa50377364)"/><path d="M695.81,384.81s-24.6-50.5-71.22-45.32,3.24,53.09,3.24,53.09S684.81,397.11,695.81,384.81Z" transform="translate(-158.33 -57.35)" fill="#348eed"/><path d="M695.81,384.81s-24.6-50.5-71.22-45.32,3.24,53.09,3.24,53.09S684.81,397.11,695.81,384.81Z" transform="translate(-158.33 -57.35)" opacity="0.1"/><path d="M537.84,376.39s0-.66.12-1.82c.83-8.09,7.46-40.67,60.09-48,0,0,40.79-7.77,47.26-21.37v41.44s-8.42,29.14-50.5,38.85S537.84,376.39,537.84,376.39Z" transform="translate(-158.33 -57.35)" fill="#348eed"/><path d="M415.47,502.64S385,521.42,406.4,558.32s361.28,0,361.28,0,22-45.32-17.48-61.51S415.47,502.64,415.47,502.64Z" transform="translate(-158.33 -57.35)" fill="#784f69"/><path d="M746.75,458.74c-.08-5.3-1.47-16-10.78-21.82,1.23-10,3.25-49.77-41.69-54.22-5.28-9.1-21.76-33.78-48.65-40.55V306.46c-6.47,13.6-47.26,21.37-47.26,21.37-46.7,6.53-57.18,32.91-59.53,44.43-6,.18-11.3,1-14.28,2.83-9.79,6.12-79.68,24.38-74.25,72.8-.94.32-1.87.66-2.8,1,0,0-55.1,44-15.15,68.31h0s18.39,35.29,72.13,8.09l.17-.11c20.24,5.81,74.47,18,106.66-6.37l2.31-1.75c12.8,7.63,43.13,21.58,68.91,1.75l.22-.17c10,9.41,30.35,21.39,54.81-3.07C766.86,486.31,761.17,465.2,746.75,458.74Z" transform="translate(-158.33 -57.35)" opacity="0.1"/><path d="M675.74,509.76s26.55,39.49,61.51,4.53,20.07-58.27,0-58.92S675.74,509.76,675.74,509.76Z" transform="translate(-158.33 -57.35)" fill="#348eed"/><path d="M675.74,509.76s26.55,39.49,61.51,4.53,20.07-58.27,0-58.92S675.74,509.76,675.74,509.76Z" transform="translate(-158.33 -57.35)" opacity="0.15"/><path d="M746.32,460.56s6.47-55-77-12.95-62.16,64.1-62.16,64.1,41.44,31.73,75.1,5.83S736.6,483.87,746.32,460.56Z" transform="translate(-158.33 -57.35)" fill="#348eed"/><path d="M746.32,460.56s6.47-55-77-12.95-62.16,64.1-62.16,64.1,41.44,31.73,75.1,5.83S736.6,483.87,746.32,460.56Z" transform="translate(-158.33 -57.35)" opacity="0.1"/><path d="M682.22,443.72s-31.73-22-80.28,0S496.4,521.42,496.4,521.42,570.86,548,611,517.53,680.28,464.44,682.22,443.72Z" transform="translate(-158.33 -57.35)" fill="#348eed"/><path d="M682.22,443.72s-31.73-22-80.28,0S496.4,521.42,496.4,521.42,570.86,548,611,517.53,680.28,464.44,682.22,443.72Z" transform="translate(-158.33 -57.35)" opacity="0.07"/><path d="M616.83,440.49s-64.75-9.06-94.53,9.06S432,515.92,432,515.92s18.39,35.29,72.13,8.09C504.17,524,615.53,454.73,616.83,440.49Z" transform="translate(-158.33 -57.35)" fill="#348eed"/><path d="M616.83,440.49s-64.75-9.06-94.53,9.06S432,515.92,432,515.92s18.39,35.29,72.13,8.09C504.17,524,615.53,454.73,616.83,440.49Z" transform="translate(-158.33 -57.35)" opacity="0.03"/><path d="M447.19,447.61s-57.62,46-12.3,69.93c0,0,95.82-62.8,97.77-69.93C532.66,447.61,488,432.07,447.19,447.61Z" transform="translate(-158.33 -57.35)" fill="#348eed"/><path d="M572.8,373.8s-38.2-6.47-48.56,0-88.05,26.55-72.52,81.58L475,447S519.71,390.63,572.8,373.8Z" transform="translate(-158.33 -57.35)" fill="#348eed"/><path d="M572.8,373.8s-38.2-6.47-48.56,0-88.05,26.55-72.52,81.58L475,447S519.71,390.63,572.8,373.8Z" transform="translate(-158.33 -57.35)" opacity="0.1"/><path d="M636.25,382.22s-27.19-25.25-87.41-1.94-80.28,65.39-80.28,65.39l90.32,6.8S609.7,379.63,636.25,382.22Z" transform="translate(-158.33 -57.35)" fill="#348eed"/><path d="M636.25,382.22s-27.19-25.25-87.41-1.94-80.28,65.39-80.28,65.39l90.32,6.8S609.7,379.63,636.25,382.22Z" transform="translate(-158.33 -57.35)" opacity="0.07"/><path d="M678.33,385.45s-43.38-14.24-77,5.18-46,57.62-46,57.62l53.74-2.59S651.14,379.63,678.33,385.45Z" transform="translate(-158.33 -57.35)" fill="#348eed"/><path d="M678.33,385.45s-43.38-14.24-77,5.18-46,57.62-46,57.62l53.74-2.59S651.14,379.63,678.33,385.45Z" transform="translate(-158.33 -57.35)" opacity="0.03"/><path d="M735.31,437.9s14.89-75.75-83.52-52.44c0,0-55.93,49.21-40.26,62.8S735.31,437.9,735.31,437.9Z" transform="translate(-158.33 -57.35)" fill="#348eed"/><path d="M398.14,549.47l52.7,175.67a5.65,5.65,0,0,0,2.17,3c14.71,10.29,127.89,83.3,266.49,0a5.67,5.67,0,0,0,2.5-3.24l52.53-175.8a5.67,5.67,0,0,0-6.81-7.12l-22.82,5.7a5.67,5.67,0,0,1-2.4.08l-21.45-4a5.67,5.67,0,0,0-3.7.57l-25.46,13.58a5.67,5.67,0,0,1-4,.5L660.5,551.6a5.67,5.67,0,0,0-3.14.11l-31.81,10.41a5.67,5.67,0,0,1-4.35-.34L600.13,551a5.67,5.67,0,0,0-4.31-.36l-27.17,8.67a5.67,5.67,0,0,1-2.12.25l-26.16-1.83a5.67,5.67,0,0,1-1.16-.2l-20.76-5.93a5.67,5.67,0,0,0-2.69-.1L487,557.34a5.67,5.67,0,0,1-3.22-.28l-28-11.09a5.67,5.67,0,0,0-3.09-.31l-22.29,4a5.67,5.67,0,0,1-2.7-.17l-22.46-7.06A5.67,5.67,0,0,0,398.14,549.47Z" transform="translate(-158.33 -57.35)" opacity="0.1"/><path d="M398.14,550.76l52.7,175.67a5.65,5.65,0,0,0,2.17,3c14.71,10.29,127.89,83.3,266.49,0a5.67,5.67,0,0,0,2.5-3.24l52.53-175.8a5.67,5.67,0,0,0-6.81-7.12L744.92,549a5.67,5.67,0,0,1-2.4.08l-21.45-4a5.67,5.67,0,0,0-3.7.57l-25.46,13.58a5.67,5.67,0,0,1-4,.5l-27.38-6.84a5.67,5.67,0,0,0-3.14.11l-31.81,10.41a5.67,5.67,0,0,1-4.35-.34l-21.07-10.8a5.67,5.67,0,0,0-4.31-.36l-27.17,8.67a5.67,5.67,0,0,1-2.12.25L540.37,559a5.67,5.67,0,0,1-1.16-.2l-20.76-5.93a5.67,5.67,0,0,0-2.69-.1L487,558.63a5.67,5.67,0,0,1-3.22-.28l-28-11.09a5.67,5.67,0,0,0-3.09-.31l-22.29,4a5.67,5.67,0,0,1-2.7-.17l-22.46-7.06A5.67,5.67,0,0,0,398.14,550.76Z" transform="translate(-158.33 -57.35)" fill="#4d4981"/><polygon points="297.62 430.78 292.11 428.86 289.02 423.91 302.76 406.71 308.27 408.63 311.36 413.58 297.62 430.78" fill="#fff" opacity="0.5"/><polygon points="558.55 459.92 553.03 458 549.95 453.05 563.68 435.85 569.19 437.76 572.28 442.71 558.55 459.92" fill="#fff" opacity="0.5"/><polygon points="443.95 366.03 438.44 364.12 435.35 359.17 449.08 341.96 454.6 343.88 457.68 348.83 443.95 366.03" fill="#fff" opacity="0.5"/><polygon points="474.88 429.29 469.55 431.65 463.91 430.15 462.18 408.2 467.51 405.84 473.15 407.34 474.88 429.29" fill="#fff" opacity="0.5"/><polygon points="385.08 375.41 381.4 379.94 375.69 381.15 364.21 362.37 367.9 357.84 373.61 356.63 385.08 375.41" fill="#fff" opacity="0.5"/><polygon points="378.61 428.5 374.92 433.03 369.22 434.24 357.74 415.46 361.42 410.93 367.13 409.72 378.61 428.5" fill="#fff" opacity="0.5"/><polygon points="536.96 433.67 532.73 437.69 526.91 438.16 517.93 418.06 522.17 414.04 527.98 413.57 536.96 433.67" fill="#fff" opacity="0.5"/><polygon points="508.11 364.79 509.54 359.13 514.2 355.63 532.54 367.81 531.11 373.47 526.45 376.98 508.11 364.79" fill="#fff" opacity="0.5"/><polygon points="313.16 373.16 307.65 371.24 304.56 366.29 318.3 349.09 323.81 351 326.9 355.95 313.16 373.16" fill="#fd6f8d" opacity="0.5"/><polygon points="382.54 340.82 381.19 335.15 383.71 329.88 405.6 332.21 406.95 337.89 404.43 343.16 382.54 340.82" fill="#fd6f8d" opacity="0.5"/><polygon points="488.62 308.54 489.71 302.81 494.16 299.03 513.18 310.11 512.09 315.84 507.64 319.62 488.62 308.54" fill="#fd6f8d" opacity="0.5"/><polygon points="446.21 279.63 451.9 278.33 457.14 280.9 454.59 302.77 448.9 304.06 443.66 301.49 446.21 279.63" fill="#fd6f8d" opacity="0.5"/><polygon points="407.15 452.19 405.8 446.51 408.31 441.24 430.2 443.57 431.55 449.25 429.04 454.52 407.15 452.19" fill="#fd6f8d" opacity="0.5"/><polygon points="326.21 456.34 322.76 451.63 323.02 445.81 344.09 439.42 347.55 444.13 347.28 449.96 326.21 456.34" fill="#fd6f8d" opacity="0.5"/><polygon points="552.8 417.34 548.01 414.01 546.38 408.4 564.25 395.55 569.04 398.88 570.67 404.48 552.8 417.34" fill="#fd6f8d" opacity="0.5"/><polygon points="401.3 421.87 396.51 418.54 394.87 412.94 412.74 400.08 417.53 403.41 419.17 409.01 401.3 421.87" fill="#fd6f8d" opacity="0.5"/><path d="M452.73,545.66l-22.29,4a5.67,5.67,0,0,1-2.7-.17l-.37-.12,40.57,188-40.57-188-22.09-6.94a5.67,5.67,0,0,0-7.13,7l52.7,175.67a5.65,5.65,0,0,0,2.17,3c4.61,3.23,18.91,12.62,40.63,21.42l-39.29-204A5.66,5.66,0,0,0,452.73,545.66Z" transform="translate(-158.33 -57.35)" opacity="0.1"/><path d="M767.74,542l-22.82,5.7a5.67,5.67,0,0,1-2.4.08l-21.45-4a5.66,5.66,0,0,0-2,0L681.57,747.48l37.48-203.69a5.67,5.67,0,0,0-1.68.58l-25.46,13.58a5.67,5.67,0,0,1-3.79.55L661.4,755.06a280.26,280.26,0,0,0,44.15-19l40.89-188.75L705.54,736q6.94-3.7,14-7.92a5.67,5.67,0,0,0,2.5-3.24l52.53-175.8A5.67,5.67,0,0,0,767.74,542Z" transform="translate(-158.33 -57.35)" opacity="0.1"/><path d="M687.87,558.44,660.5,551.6a5.66,5.66,0,0,0-1.61-.16L638,761.58q11.5-2.61,23.44-6.52l26.72-196.56Z" transform="translate(-158.33 -57.35)" fill="#4d4981"/><g opacity="0.5"><rect x="447.32" y="548.5" width="0.65" height="192.29" transform="translate(-284.25 51.59) rotate(-12.18)" fill="#fff"/><rect x="499.39" y="557.95" width="0.65" height="201.19" transform="translate(-247.01 20.51) rotate(-8.19)" fill="#fff"/><rect x="473.66" y="544.79" width="0.65" height="207.96" transform="translate(-272.5 44.02) rotate(-10.9)" fill="#fff"/><rect x="526.13" y="552.08" width="0.65" height="212.05" transform="translate(-214.22 -8.45) rotate(-5.05)" fill="#fff"/><rect x="555.12" y="559.81" width="0.65" height="207.61" transform="translate(-177.58 -40.75) rotate(-1.68)" fill="#fff"/><rect x="586.67" y="554.95" width="0.65" height="213.91" transform="translate(-162.63 -53.52) rotate(-0.37)" fill="#fff"/><rect x="517.7" y="665.22" width="202.95" height="0.65" transform="translate(-229.51 1199.57) rotate(-87.65)" fill="#fff"/><rect x="542.25" y="657.79" width="212.28" height="0.65" transform="translate(-229.42 1180.31) rotate(-84.28)" fill="#fff"/><rect x="574.78" y="656.84" width="200.2" height="0.65" transform="matrix(0.13, -0.99, 0.99, 0.13, -225.62, 1179.91)" fill="#fff"/><rect x="596.61" y="646.43" width="207.48" height="0.65" transform="translate(-221.08 1160.76) rotate(-79.55)" fill="#fff"/><rect x="629.42" y="642.64" width="193.13" height="0.65" transform="translate(-214.09 1159.48) rotate(-77.81)" fill="#fff"/></g><path d="M207.92,697.1c6-2,15-4.28,22.09-3.47,6.74-2.46,22.6-8.88,33.43-18.39a241,241,0,0,1,.71-28.24c5.54-63-6.92-104.49-6.92-104.49s-9.78-31.67-8.71-57.95c-.63,1.19-1,1.9-1,1.9-.86-22.67-8.58-46.13-14.36-60.74a4.88,4.88,0,0,1-.65-.24l-6.59-15.34a13.31,13.31,0,0,1-1.22-2.83l-1-2.43.31-.13c-.1-.4-.21-.82-.31-1.25h0c-4.13-17.47-7.28-58.9-7.28-58.9C205.33,301,231.63,274,231.63,274l44.63-38.41a5.66,5.66,0,0,0-.44,1.57l.37-.32c.63-1.8,1.32-4,2-6.44a33.93,33.93,0,0,1-4.46-3.77,34.27,34.27,0,0,1-10-17.85c-1.08-5.31-.87-10.78-.65-16.19l.74-18.52a58.81,58.81,0,0,1,1.1-10.8c3.37-14.74,18.43-25,33.54-25.65,4.81-.2,9.61.41,14.4.77a96.85,96.85,0,0,0,11.7.25,2.12,2.12,0,0,0,1.26-.33,1.85,1.85,0,0,0,.55-1.28,6.37,6.37,0,0,0-1.56-4.77,5.94,5.94,0,0,0-2-1.16l1.08.26a5.88,5.88,0,0,0-1.77-.95c3.86.91,7.81,1.86,11.13,4a14.38,14.38,0,0,1,2.6,2.19,11.35,11.35,0,0,1,3.76,7c1.73-1.69,3.39-3.55,4-5.87a5.93,5.93,0,0,0,0-2.84q.39.49.76,1c0-.1,0-.2-.07-.3a29.7,29.7,0,0,1,5.81,12,4.66,4.66,0,0,0,1.05-3.44c.22.68.43,1.37.62,2.07a4.79,4.79,0,0,0,.07-1.38,47.32,47.32,0,0,1,2.31,16.43c0,5.56-2.46,14.21-8.42,16.16-.3.1-.62.18-.94.25a37.35,37.35,0,0,1-25.19,57.05q-.14,1-.28,2.13l-.24,0c-.16,1.5-.29,3.08-.39,4.73a31.84,31.84,0,0,0,4.9,3.94A40.46,40.46,0,0,0,339.85,251a48.63,48.63,0,0,1,19.65,5.84c7.12,4,15,9.79,17.45,16.84,4.12,11.77,26.76,30,42,32.27l5.4-.31.39-.12v.1l1.32-.08.08,0v0l.35,0,0,.08,1.37-.08s.14.63.32,1.75c7.65-2.62,23.88-9.92,45-29.08,23.54-21.35,55.31-17.15,67.56-14.46a2.1,2.1,0,0,1,.56,3.89c-4.94,2.72-12.62,6.67-16.22,7.11,0,0,7.42,7.68-.46,11.78a5.67,5.67,0,0,1-5.93-.57c-3.79-2.77-14.33,3.51-29.59,6.78,0,0-43.08,44.58-64.45,51.48A30.74,30.74,0,0,1,423,347l-1.32-.11-.07.11h-.18l-.16,1.4s-33.25-1.75-44-13.82a17.32,17.32,0,0,1-2.11-2.25l11.56,145.48h-.11l.11,1.38h-8.5a320.62,320.62,0,0,0,2.28,53.63v94.8s.44,8.35-16.89,20.5A647.93,647.93,0,0,0,311,688.79l-2.1,1.82c3.19,29,9.86,83.08,15.42,85.1l-3.43.6c5.91,7.45,22.56,27.89,27.65,28.46,6.23.69,10.38,10.38,0,12.46-9.58,1.92-34.48,4.42-61.65-6.08a9.41,9.41,0,0,1-5.92-10l2-15.28a2.14,2.14,0,0,0-.88.93c-1.38,4.15,0-5.54,0-5.54a433,433,0,0,1-13.38-55.84l-20.52,17.78s-.42-.51-1.13-1.43c-5,11.44-14,34.81-12,51.95,2.77,23.53-23.53,2.77-20.76-11.07,2.24-11.2-7.75-58.64-11.65-76.34A7.89,7.89,0,0,1,207.92,697.1Z" transform="translate(-158.33 -57.35)" fill="url(#c2d29fed-0e3c-4665-9fc2-6bc8bc700b9c)"/><path d="M422.79,313.2s19.6-3.38,48.65-29.73c23-20.85,54-16.74,66-14.12a2,2,0,0,1,.55,3.79c-4.83,2.65-12.33,6.51-15.84,6.95,0,0,7.24,7.5-.45,11.51a5.54,5.54,0,0,1-5.79-.56c-3.7-2.7-14,3.43-28.89,6.62,0,0-58.11,60.14-71.62,50Z" transform="translate(-158.33 -57.35)" fill="#fec3be"/><path d="M322.78,231.44s-5.41,23,0,39.19L298.46,274,276.84,263.2V249s10.14-21.62,7.43-46.62Z" transform="translate(-158.33 -57.35)" fill="#fec3be"/><path d="M253.86,729.44S236.29,763.9,239,786.87s-23,2.7-20.27-10.81c2.19-10.93-7.57-57.26-11.37-74.54a7.7,7.7,0,0,1,5.12-9c8.13-2.67,21.72-6,28.56-.94C251.16,699,253.86,729.44,253.86,729.44Z" transform="translate(-158.33 -57.35)" fill="#8b416f"/><path d="M320.76,767.27s23,29.73,29.06,30.41,10.14,10.14,0,12.16c-9.35,1.87-33.67,4.32-60.2-5.94a9.19,9.19,0,0,1-5.78-9.78l3.81-28.88Z" transform="translate(-158.33 -57.35)" fill="#8b416f"/><path d="M358.6,451.72l22,2.94s-5.14,36.92.26,77.47V624.7s.43,8.15-16.49,20a632.65,632.65,0,0,0-51.24,39.71l-61.32,53.12s-24.33-29.73-20.95-47.3c0,0,40.54-12.84,45.95-33.79,3.1-12,18.82-22,31.69-28.35,16.58-8.19,25.62-26.8,21.08-44.72a34.48,34.48,0,0,0-3.45-8.69c-10.81-18.92-26.35-61.49-26.35-61.49l29.73-56.76Z" transform="translate(-158.33 -57.35)" fill="#4d4981"/><path d="M358.6,451.72l22,2.94s-5.14,36.92.26,77.47V624.7s.43,8.15-16.49,20a632.65,632.65,0,0,0-51.24,39.71l-61.32,53.12s-24.33-29.73-20.95-47.3c0,0,40.54-12.84,45.95-33.79,3.1-12,18.82-22,31.69-28.35,16.58-8.19,25.62-26.8,21.08-44.72a34.48,34.48,0,0,0-3.45-8.69c-10.81-18.92-26.35-61.49-26.35-61.49l29.73-56.76Z" transform="translate(-158.33 -57.35)" opacity="0.05"/><path d="M326.16,769.3s-39.87,6.76-41.22,10.81,0-5.41,0-5.41-23-69.6-17.57-131.09-6.76-102-6.76-102-14.19-45.95-6.08-72.3,93.25-14.87,93.25-14.87S318.05,524,318.73,557.13c0,0-3.38,100-9.46,111.49C309.27,668.62,318.73,766.6,326.16,769.3Z" transform="translate(-158.33 -57.35)" fill="#4d4981"/><path d="M321.43,249s-4.05,25-44.6,14.19l27,205.41s78.38,2.7,77.71-6.76L365.35,337.53Z" transform="translate(-158.33 -57.35)" fill="#fff"/><path d="M320.42,247.66s7.68,8.24,19.52,9.27a47.49,47.49,0,0,1,19.18,5.71c7,3.89,14.63,9.55,17,16.45,4.73,13.51,34.46,35.81,48,31.08l-4.73,40.54s-38.51-2-45.27-16.89l11.49,144.6H375.49s-5.41-39.19-9.46-47.3-12.16-52.7-12.84-63.52-10.81-73-19.6-83.79l-13.18-32.1Z" transform="translate(-158.33 -57.35)" opacity="0.1"/><path d="M320.42,249.69s9,7.57,20.87,8.59A47.49,47.49,0,0,1,360.47,264c7,3.89,14.63,9.55,17,16.45,4.73,13.51,34.46,35.81,48,31.08l-4.73,40.54s-38.51-2-45.27-16.89L387,479.76H376.84s-5.41-39.19-9.46-47.3-12.16-52.7-12.84-63.52-10.81-73-19.6-83.79l-14.53-31.42Z" transform="translate(-158.33 -57.35)" opacity="0.1"/><path d="M320.42,248.34s9,7.57,20.87,8.59a47.49,47.49,0,0,1,19.18,5.71c7,3.89,14.63,9.55,17,16.45,4.73,13.51,34.46,35.81,48,31.08l-4.73,40.54s-38.51-2-45.27-16.89L387,478.41H376.84s-5.41-39.19-9.46-47.3-12.16-52.7-12.84-63.52-10.81-73-19.6-83.79l-14.53-31.42Z" transform="translate(-158.33 -57.35)" fill="#fd6f8d"/><path d="M286,222.32c.88-6.4-.88-10.4-1.69-17.91l38.51,29.06s-.92,3.93-1.62,9.67a36.73,36.73,0,0,1-5.81.47C301.91,243.61,292.29,233.14,286,222.32Z" transform="translate(-158.33 -57.35)" opacity="0.1"/><circle cx="157.02" cy="147.74" r="36.49" fill="#fec3be"/><path d="M355.17,169.33a46.19,46.19,0,0,0-3-18.06,4.5,4.5,0,0,1-.77,5.83,28.91,28.91,0,0,0-9.17-16.24c2.6.42,3.93,3.65,3.3,6.21s-2.61,4.53-4.51,6.35c.22-3.87-2.33-7.47-5.57-9.6s-7.1-3-10.87-3.94a6.3,6.3,0,0,1,4.17,6.46,1.8,1.8,0,0,1-.54,1.25,2.07,2.07,0,0,1-1.23.33,94.57,94.57,0,0,1-11.42-.24,119.71,119.71,0,0,0-14.06-.75c-14.76.62-29.46,10.65-32.75,25a57.43,57.43,0,0,0-1.07,10.54L267,200.6c-.21,5.28-.42,10.63.64,15.81a33.49,33.49,0,0,0,17.21,22.74c5.3-7.68,5.77-17.55,7.61-26.7a13.51,13.51,0,0,1,2.29-5.9c1.33-1.66,3.67-2.71,5.65-1.92s2.84,3.82,1.19,5.17c1.42,1.73,4.22.44,5.85-1.1a31.56,31.56,0,0,0,9.16-16.35c.66-3.15,1.32-7,4.36-8.09a8.2,8.2,0,0,1,3.27-.22c6.43.44,16.49,3.1,22.73,1.06C352.77,183.2,355.17,174.76,355.17,169.33Z" transform="translate(-158.33 -57.35)" opacity="0.1"/><path d="M354.5,168.65a46.19,46.19,0,0,0-3-18.06,4.5,4.5,0,0,1-.77,5.83,28.91,28.91,0,0,0-9.17-16.24c2.6.42,3.93,3.65,3.3,6.21s-2.61,4.53-4.51,6.35c.22-3.87-2.33-7.47-5.57-9.6s-7.1-3-10.87-3.94a6.3,6.3,0,0,1,4.17,6.46,1.8,1.8,0,0,1-.54,1.25,2.07,2.07,0,0,1-1.23.33,94.57,94.57,0,0,1-11.42-.24,119.71,119.71,0,0,0-14.06-.75c-14.76.62-29.46,10.65-32.75,25A57.43,57.43,0,0,0,267,181.84l-.72,18.08c-.21,5.28-.42,10.63.64,15.81a33.49,33.49,0,0,0,17.21,22.74c5.3-7.68,5.77-17.55,7.61-26.7a13.51,13.51,0,0,1,2.29-5.9c1.33-1.66,3.67-2.71,5.65-1.92s2.84,3.82,1.19,5.17c1.42,1.73,4.22.44,5.85-1.1a31.56,31.56,0,0,0,9.16-16.35c.66-3.15,1.32-7,4.36-8.09a8.2,8.2,0,0,1,3.27-.22c6.43.44,16.49,3.1,22.73,1.06C352.09,182.53,354.5,174.08,354.5,168.65Z" transform="translate(-158.33 -57.35)" fill="#fad375"/><path d="M427.18,310.16s5.41,25-4.73,40.54l-5.74-.47,3.13-39.65Z" transform="translate(-158.33 -57.35)" opacity="0.1"/><path d="M425.83,310.16s5.41,25-4.73,40.54l-5.74-.47,3.13-39.65Z" transform="translate(-158.33 -57.35)" fill="#fd6f8d"/><path d="M280.55,241.92,237,279.42s-25.68,26.35-14.87,68.92c0,0,4.73,62.16,10.14,64.87,0,0,18.92,37.84,20.27,73.65,0,0,25.34-51,36.83-19.93s38.18,35.47,38.18,35.47L312.65,318.61S275.15,253.4,280.55,241.92Z" transform="translate(-158.33 -57.35)" opacity="0.1"/><path d="M279.2,241.92l-43.58,37.5s-25.68,26.35-14.87,68.92c0,0,4.73,62.16,10.14,64.87,0,0,18.92,37.84,20.27,73.65,0,0,26.69-53.72,38.18-22.64s36.83,38.18,36.83,38.18L311.3,318.61S273.8,253.4,279.2,241.92Z" transform="translate(-158.33 -57.35)" fill="#fd6f8d"/><path d="M259.27,400.37s-10.81-7.43-28.38,12.84l43.24,78.38,14.53-22S257.92,409.15,259.27,400.37Z" transform="translate(-158.33 -57.35)" fill="#fec3be"/><path d="M269.74,404.76s-23.91,26.86-33.24,22.55l-8.64-20.11,32.42-13.93Z" transform="translate(-158.33 -57.35)" opacity="0.1"/><path d="M269.74,403.41S245.83,430.27,236.5,426l-8.64-20.11,32.42-13.93Z" transform="translate(-158.33 -57.35)" fill="#fd6f8d"/><path d="M287.2,464.54s-11.38,23.33-17.46,24.69l8.78,10.14L291.36,475Z" transform="translate(-158.33 -57.35)" opacity="0.1"/><path d="M287.88,465.21s-11.38,23.33-17.46,24.69L279.2,500,292,475.71Z" transform="translate(-158.33 -57.35)" fill="#4d4981"/><path d="M266.36,321s-1.35,48.65,4.05,66.89" transform="translate(-158.33 -57.35)" opacity="0.1"/><path d="M375.83,330.43s-8.11-2.7-8.11-9.46" transform="translate(-158.33 -57.35)" opacity="0.1"/><g opacity="0.5"><path d="M827.65,331.62c-.06,6.39.7,12.3,2.76,16.93l2,29s.5-.28,1.41-.72c-1.21,11-.34,31.15,21.26,34.94a3.66,3.66,0,0,0,1.33-.66,98,98,0,0,0,4-9.21l.25.08-.25,1.24,1.6.5c-7.79,16.88-6,52-4.27,55.44.73,1.44,1.28,5.68,1.69,10.49a119.67,119.67,0,0,1-1,28c-1,6.39-1.3,14.23,2,17.49,6,5.92,5.33,51.33,5.33,51.33a32.84,32.84,0,0,0,1.39,3l-2.06.29s0,17.77,3.33,30.27c1.92,7.19-.8,16.56-3.45,23.22a46.94,46.94,0,0,0-2.31,28.27c1.95,8.14,6,16.26,14.43,18.93,18.67,5.92,22.67-25,22.67-25s-.67-23.69,0-27c.21-1,1.17-3.84,2.41-7.26a90.46,90.46,0,0,0,5-39l-.77-8.32-3.62.52c-.06-.86-.11-1.76-.16-2.7s-.09-1.62-.13-2.47-.08-1.72-.12-2.62-.08-1.81-.11-2.74q0-.7-.05-1.41c-.15-4.26-.28-8.81-.39-13.31,0-2-.09-4-.12-5.95,0-1.46-.05-2.91-.07-4.31q0-.7,0-1.4c0-2.3-.06-4.5-.07-6.53q0-.61,0-1.2,0-1.18,0-2.26,0-.54,0-1.06c0-.69,0-1.34,0-2s0-1.2,0-1.73,0-1,0-1.48c0-2.47.1-3.57.2-2.66.33,3,1.33,21.06,0-2-1.08-18.59,15.66-62.91,22.15-79.3a57.75,57.75,0,0,1,6,3.58c2.22,25.86-.83,75.43-1.81,90v.06c-.08,1.13-.14,2-.19,2.71v.12l-.05.72v.2l0,.21v.11s-8.67,54-8.67,66.47c0,9.63-4.75,23.56-6.93,29.44-3.17,1.38-5.74,2.8-5.74,2.8l.67,49.36s-7.33,24.35,19.33,30.27,15.33-24.35,15.33-24.35l-2-21.72,9.33-33.56-2.62-.53c5.54-17.7,20.38-66.4,19.29-77.12-1.22-12,4.77-25.08,5.84-27.3h0l.16-.34c-5.72-11.8,11.67-74,19.6-100.84,9.89-4.72,17.06-8.4,17.06-8.4s-.2-.37-.55-1l.55-.28a132.29,132.29,0,0,1-10.23-25.09l.57-.58-.43-1.21c1.36-1.31,2.1-2.08,2.1-2.08s19.33,3.29,14.67-5.92-3.33-23-3.33-23V299.41l9.33,3.07c17.55,2.89,20.69-16.71,20.6-31.74a116.66,116.66,0,0,0-1.26-17.62s-13.33-102-36.67-98.71c-21.86,3.08-41.08-9.71-43.43-11.35q-.43-1.32-.77-2.6a33,33,0,0,0,3.5-4.76c.73,0,1.47-.1,2.17-.18,0-.2,0-.39,0-.59l.67-.07a17.22,17.22,0,0,1,4.76-12.43,16.51,16.51,0,0,1,4.38-3c3.23-1.51,6.88-2,10.05-3.62a11.09,11.09,0,0,0,3-2.29c2-1.8,3.3-4.31,2.61-6.81-.31-1.11-1-2.13-1-3.28,0-1.6,1.25-2.88,2-4.29C994,95,992,89.82,989.25,86s-6.28-7.42-7.29-12c-.41-1.88-.38-3.86-1-5.69-2-5.93-9.66-7.7-16-7.37s-13.14,1.68-18.62-1.44A17.45,17.45,0,0,0,943,57.6a9.16,9.16,0,0,0-4.21,0c-8,1.39-15.37,5.36-22,10a50.64,50.64,0,0,0-7.46,6.1,27.44,27.44,0,0,0-4,4.77c-2.7,4.17-4,9.49-2.31,14.16a14.33,14.33,0,0,0,4.83,6.48,32.62,32.62,0,0,0,6.71,46.18,38.1,38.1,0,0,1-3.76,5.14v-.26s-20.33,10.2-27.67,8.88c-7.16-1.29-25.76,10.62-25.38,34.46,0,.6,0,1.22,0,1.84l-12,37.21a150.56,150.56,0,0,0-7.29,46.26S827.44,308.76,827.65,331.62Zm32.23,15.76,15.86-59.16v12.94l-10,35.54s-2,11.89-3.53,24.52Z" transform="translate(-158.33 -57.35)" fill="url(#c8cc5a91-18e5-403f-9b97-91f48ba2f890)"/></g><path d="M907.17,555.35l.74,8.13a89.47,89.47,0,0,1-4.85,38.15c-1.19,3.35-2.12,6.11-2.32,7.1-.64,3.22,0,26.37,0,26.37s-3.86,30.23-21.87,24.44c-8.1-2.6-12-10.55-13.92-18.5a46.44,46.44,0,0,1,2.23-27.62c2.56-6.51,5.18-15.66,3.33-22.69-3.22-12.22-3.22-29.58-3.22-29.58Z" transform="translate(-158.33 -57.35)" fill="#5a5773"/><path d="M926.46,415.8s-25.08,61.1-23.79,83.6.32,4.82,0,1.93c-.57-5.15,0,56,1.93,63,0,0-26.37,19.29-36.66-6.43,0,0,.64-44.37-5.14-50.16-3.18-3.18-2.87-10.84-1.93-17.09a118.45,118.45,0,0,0,1-27.33c-.39-4.7-.93-8.84-1.63-10.25-1.93-3.86-3.86-47.59,7.72-59.81Z" transform="translate(-158.33 -57.35)" fill="#605d82"/><path d="M901.38,564.36c-1.93-7.07-2.5-68.18-1.93-63,.32,2.89,1.29,20.58,0-1.93s23.79-83.6,23.79-83.6l-56.11-21.58c.26-.33.53-.64.8-.93l58.52,22.51s-25.08,61.1-23.79,83.6.32,4.82,0,1.93c-.57-5.15,0,56,1.93,63,0,0-10.53,7.7-20.88,6.88C892.92,570.54,901.38,564.36,901.38,564.36Z" transform="translate(-158.33 -57.35)" opacity="0.1"/><path d="M948.32,613.88l-9,32.8,1.93,21.22s10.93,29.58-14.79,23.79-18.65-29.58-18.65-29.58l-.64-48.23s10.29-5.79,14.79-5.14S948.32,613.88,948.32,613.88Z" transform="translate(-158.33 -57.35)" fill="#5a5773"/><path d="M992.7,400.37S963.12,496.19,970.19,511c0,0-7.07,14.15-5.79,27s-20.58,81.67-20.58,81.67l-32.16-5.79s7.72-19.29,7.72-31.51,8.36-65,8.36-65,7.07-96.47-1.29-106.76Z" transform="translate(-158.33 -57.35)" fill="#605d82"/><g opacity="0.1"><path d="M928.95,418.42c5.33,21.84-.56,102.21-.56,102.21s-8.36,52.73-8.36,65c0,9.33-4.49,22.77-6.62,28.61l-1.74-.31s7.72-19.29,7.72-31.51,8.36-65,8.36-65S933.13,444,928.95,418.42Z" transform="translate(-158.33 -57.35)"/><path d="M970.19,511l-.16.33c-.05-.33-.1-.68-.13-1A7.11,7.11,0,0,0,970.19,511Z" transform="translate(-158.33 -57.35)"/><path d="M927.91,413.75a9.47,9.47,0,0,0-1.45-3.09l66.24-10.29s-.39,1.25-1.06,3.48Z" transform="translate(-158.33 -57.35)"/></g><path d="M838.35,365.64s-9.65,36,19.29,41.16a3.52,3.52,0,0,0,1.29-.64s16.72-32.8,3.86-45.66Z" transform="translate(-158.33 -57.35)" fill="#a1616a"/><path d="M956.69,126.4s-1.93,27,19.29,39.87-45,48.23-45,48.23L896.23,159.2S911,161.13,920,135.41Z" transform="translate(-158.33 -57.35)" fill="#a1616a"/><path d="M970.83,168.2s-32.8,68.17-62.38,3.86L862.79,398.44s70.74,21.87,71.38,32.16,71.38-26.37,71.38-26.37-15.43-28.3-11.58-45.66S970.83,168.2,970.83,168.2Z" transform="translate(-158.33 -57.35)" opacity="0.1"/><path d="M970.83,166.92s-32.8,68.17-62.38,3.86L862.79,397.15S933.53,419,934.18,429.3s71.38-26.37,71.38-26.37-15.43-28.3-11.58-45.66S970.83,166.92,970.83,166.92Z" transform="translate(-158.33 -57.35)" fill="#e1e7ef"/><path d="M938.68,631.88s8.36-18.65-10.93-18.65S911.67,630,911.67,630Z" transform="translate(-158.33 -57.35)" fill="#5a5773"/><path d="M894.95,583.65s7.72-19.94-11.58-20.58-9.65,18-9.65,18Z" transform="translate(-158.33 -57.35)" fill="#5a5773"/><path d="M911.35,152.45s-19.61,10-26.69,8.68-25.72,10.93-24.44,35.37L848.6,233a148.9,148.9,0,0,0-7,45.21h0s-16.72,46.3-7.72,66.88l1.93,28.3S850.57,365,866,367.57l-3.86-23.15,17.36-65.6,28.94-70.1Z" transform="translate(-158.33 -57.35)" opacity="0.1"/><path d="M911.35,151.16s-19.61,10-26.69,8.68-25.72,10.93-24.44,35.37L848.6,231.68a148.9,148.9,0,0,0-7,45.21h0s-16.72,46.3-7.72,66.88l1.93,28.3s14.79-8.36,30.23-5.79l-3.86-23.15,17.36-65.6,28.94-70.1Z" transform="translate(-158.33 -57.35)" fill="#67647e"/><path d="M878.87,229.3V302l-9.65,34.73s-6.43,37.94-4.5,49.52,32.8,14.15,41.16,4.5,3.86-92,3.86-92l1.61-120.58-1.29-3.86Z" transform="translate(-158.33 -57.35)" opacity="0.1"/><path d="M877.58,226.08v72.67l-9.65,34.73s-6.43,37.94-4.5,49.52,32.8,14.15,41.16,4.5,3.86-92,3.86-92L910.06,175Z" transform="translate(-158.33 -57.35)" fill="#67647e"/><path d="M1007.17,286.54l-20.58,64,9.65,27.33s-45.66,48.23-74.6,25.08c0,0-3.22-98.4,3.22-121.55s37.3-101,37.3-101l6.43-20.58,34.08,19.29Z" transform="translate(-158.33 -57.35)" opacity="0.1"/><path d="M1008.78,283.32v63s-1.29,13.51,3.22,22.51-14.15,5.79-14.15,5.79-45.66,48.23-74.6,25.08c0,0-3.22-98.4,3.22-121.55s37.3-101,37.3-101l6.43-20.58,34.08,19.29Z" transform="translate(-158.33 -57.35)" fill="#67647e"/><rect x="929.99" y="262.04" width="45" height="7" transform="translate(1535.67 -445.97) rotate(123)" fill="#e6e6e6"/><ellipse cx="937.75" cy="288.24" rx="14.57" ry="8" transform="matrix(0.54, -0.84, 0.84, 0.54, 26.9, 860.32)" opacity="0.1"/><ellipse cx="937.28" cy="288.96" rx="14.57" ry="8" transform="translate(26.08 860.25) rotate(-57)" fill="#e6e6e6"/><ellipse cx="937.28" cy="288.96" rx="11.84" ry="6.5" transform="translate(26.08 860.25) rotate(-57)" opacity="0.1"/><path d="M958.94,145.37s19.61,14.47,42.12,11.25,35.37,96.47,35.37,96.47,8.36,51.45-18.65,46.95L958,280.1s12.86-13.51,10.93-30.87l28.94,11.58-1.29-55.31Z" transform="translate(-158.33 -57.35)" opacity="0.1"/><path d="M1035.14,251.81s8.36,51.45-18.65,46.95l-59.81-19.94s12.86-13.51,10.93-30.87l28.94,11.58Z" transform="translate(-158.33 -57.35)" opacity="0.1"/><path d="M969,254.73S949,228.34,934.19,241s29.55,35.89,29.55,35.89Z" transform="translate(-158.33 -57.35)" fill="#a1616a"/><path d="M958.94,144.09s19.61,14.47,42.12,11.25,35.37,96.47,35.37,96.47,8.36,51.45-18.65,46.95L958,278.82s12.86-13.51,10.93-30.87l28.94,11.58-1.29-55.31-32.8-27Z" transform="translate(-158.33 -57.35)" fill="#67647e"/><path d="M919.38,136.69l36.66-9s-1.91,2.16.32,10.61c-5.9,6.77-13.15,15.76-22.83,15.76a32,32,0,0,1-19.22-6.37A57.82,57.82,0,0,0,919.38,136.69Z" transform="translate(-158.33 -57.35)" opacity="0.1"/><circle cx="775.84" cy="63.26" r="32.16" fill="#a1616a"/><path d="M922,106.66c-7.46-1.27-15.66-4.58-18.16-11.72-1.6-4.57-.38-9.77,2.23-13.84s6.45-7.2,10.41-10c6.43-4.52,13.52-8.4,21.26-9.76a8.73,8.73,0,0,1,4.06,0,16.76,16.76,0,0,1,3.29,1.8c5.29,3.05,11.87,1.73,18,1.41s13.48,1.41,15.41,7.2c.6,1.79.56,3.72,1,5.56,1,4.5,4.39,8,7,11.75s4.62,8.82,2.42,12.86c-.75,1.37-2,2.63-2,4.19a13,13,0,0,0,1,3.21c.91,3.32-1.74,6.67-4.8,8.25s-6.58,2.07-9.7,3.54a17,17,0,0,0-9.47,15.74c-2.84.33-6.15.5-8.07-1.62-.86-.95-1.28-2.22-2.06-3.23-1-1.32-2.56-2.1-3.84-3.16-6.73-5.53-1.95-13.17-5.76-19.13-2-3.07-5.18-2.13-8.4-2.08A74.22,74.22,0,0,1,922,106.66Z" transform="translate(-158.33 -57.35)" opacity="0.1"/><path d="M922.63,106c-7.46-1.27-15.66-4.58-18.16-11.72-1.6-4.57-.38-9.77,2.23-13.84s6.45-7.2,10.41-10c6.43-4.52,13.52-8.4,21.26-9.76a8.73,8.73,0,0,1,4.06,0,16.76,16.76,0,0,1,3.29,1.8c5.29,3.05,11.87,1.73,18,1.41s13.48,1.41,15.41,7.2c.6,1.79.56,3.72,1,5.56,1,4.5,4.39,8,7,11.75s4.62,8.82,2.42,12.86c-.75,1.37-2,2.63-2,4.19a13,13,0,0,0,1,3.21c.91,3.32-1.74,6.67-4.8,8.25s-6.58,2.07-9.7,3.54a17,17,0,0,0-9.47,15.74c-2.84.33-6.15.5-8.07-1.62-.86-.95-1.28-2.22-2.06-3.23-1-1.32-2.56-2.1-3.84-3.16-6.73-5.53-1.95-13.17-5.76-19.13-2-3.07-5.18-2.13-8.4-2.08A74.22,74.22,0,0,1,922.63,106Z" transform="translate(-158.33 -57.35)" fill="#4a4347"/><path d="M883.69,214.19s-7.07,36.66-3.86,50.81a47.15,47.15,0,0,1-.84,24.92" transform="translate(-158.33 -57.35)" opacity="0.1"/><path d="M998,229.62s3.08,24.44-2.05,29.58" transform="translate(-158.33 -57.35)" opacity="0.1"/><path d="M818.42,530.81a1.5,1.5,0,0,0,0-3,1.5,1.5,0,0,0,0,3Z" transform="translate(-158.33 -57.35)"/><rect x="507.29" y="273.65" width="45" height="7" transform="translate(-14.36 -236.96) rotate(22.2)" fill="#e6e6e6"/><ellipse cx="554.85" cy="287.38" rx="8" ry="14.57" transform="translate(-79.18 635.19) rotate(-67.8)" opacity="0.1"/><ellipse cx="555.65" cy="287.7" rx="8" ry="14.57" transform="translate(-78.99 636.12) rotate(-67.8)" fill="#e6e6e6"/><ellipse cx="555.65" cy="287.7" rx="6.5" ry="11.84" transform="translate(-78.99 636.12) rotate(-67.8)" opacity="0.1"/></svg>