<?xml version="1.0" standalone="no"?><!DOCTYPE svg PUBLIC "-//W3C//DTD SVG 1.1//EN" "http://www.w3.org/Graphics/SVG/1.1/DTD/svg11.dtd"><svg t="1547543867554" class="icon" style="" viewBox="0 0 1024 1024" version="1.1" xmlns="http://www.w3.org/2000/svg" p-id="16276" xmlns:xlink="http://www.w3.org/1999/xlink" width="400" height="400"><defs><style type="text/css"></style></defs><path d="M253.44 577.536c2.56 18.432 5.12 36.352 7.68 55.296 15.36-11.776 30.208-23.04 45.056-34.304-1.536-2.56-43.008-18.944-52.736-20.992zM610.304 577.536c2.56 18.432 5.12 36.352 7.68 55.296 15.36-11.776 30.208-23.04 45.056-34.304-2.048-2.56-43.008-18.944-52.736-20.992z" fill="#DD6DA6" p-id="16277"></path><path d="M512 0C229.376 0 0 229.376 0 512s229.376 512 512 512 512-229.376 512-512S794.624 0 512 0z m-29.184 444.928h16.896c3.072 0 4.096 1.024 4.096 4.608v53.76c-6.656-0.512-13.824-0.512-20.992-1.024V444.928z m-115.712-6.656c2.048 0 3.072 1.024 3.584 3.584 1.536 17.92 3.584 35.328 5.12 53.76-6.656 1.024-13.312 1.024-20.48 1.536-2.56-19.456-5.12-38.912-7.168-58.368 6.144-0.512 12.8-0.512 18.944-0.512z m-27.648 3.072c2.56-0.512 2.048 2.048 2.56 3.584 0.512 6.656 1.536 12.8 2.048 19.456 1.024 10.24 2.56 19.968 3.584 30.208v4.096l-15.872 2.56c-3.584-18.944-6.656-37.376-10.24-56.832 5.632-1.024 11.776-2.56 17.92-3.072z m-3.072 184.32c-2.56 8.192-8.192 14.848-15.36 20.48-16.896 13.312-34.304 25.088-54.784 31.744-14.336 5.12-29.184 8.192-44.032 10.752-19.456 3.072-39.424 4.096-59.392 6.144-4.096 0.512-8.192 0-12.288 0-2.048 0-2.56-1.024-2.56-3.072 0-8.704-1.024-17.92-1.536-27.136-1.024-11.776-2.048-23.04-3.584-34.816-2.048-16.384-4.096-32.256-5.632-48.64-2.048-16.896-4.096-34.304-6.144-51.2-2.048-16.896-3.584-33.28-5.632-49.664-2.56-18.944-5.12-37.376-8.192-56.832-3.072-22.016-7.168-44.544-12.8-66.56-0.512-1.024 0.512-3.072 1.024-3.584 19.456-7.168 38.4-14.848 57.856-23.04 6.144-2.56 6.656-3.584 6.656 4.608 0 34.304 0 68.608 0.512 103.424 0.512 17.92 1.024 35.84 2.56 53.76 1.536 21.504 4.096 43.008 5.632 65.024 0 1.024 0.512 1.536 0.512 2.56 7.168-0.512 14.848-1.024 22.016-1.024 30.72-1.024 60.416 3.584 89.088 14.848 13.824 5.632 27.648 12.288 39.936 20.992 9.216 7.68 11.776 17.408 6.144 31.232z m26.112 44.544c-10.24-50.688-19.968-100.352-29.696-151.04 8.192-1.024 15.872-2.56 23.552-3.584 5.632-1.024 11.264-1.024 16.896-1.536 3.072-0.512 5.12 1.024 5.632 4.096 1.024 7.68 2.56 15.36 3.584 23.552 1.536 13.312 3.072 26.624 4.096 39.936 1.536 11.776 2.56 23.04 4.096 34.816 1.536 12.288 3.072 24.576 4.608 37.376 0.512 3.584 1.024 7.168 1.536 11.264-11.776 2.048-22.528 3.584-34.304 5.12zM445.44 655.36c-10.24-1.024-19.968-1.536-30.72-2.56-9.216-92.672-16.896-185.856-34.304-279.04 5.632-0.512 11.264-1.536 17.408-2.048 6.656-0.512 13.312-1.024 20.48-1.536 5.632-0.512 7.68 1.024 8.192 6.656l3.072 44.032c1.536 19.968 3.072 39.936 4.096 59.392 1.024 14.336 1.536 28.672 3.072 43.008 1.536 15.872 3.072 31.232 4.096 47.104 1.536 11.264 2.56 23.04 3.584 34.304 1.536 12.288 2.56 24.576 3.584 37.376l1.024 10.752c-0.512 2.56-1.536 3.072-3.584 2.56z m27.136-210.944c2.56 0 3.584 0.512 3.584 3.584-0.512 7.68 0 15.872 0 23.552v29.696c-5.632 0.512-11.264 1.024-16.384 1.536-1.536-18.944-3.072-37.888-4.608-58.368h17.408z m2.56 228.864c-1.024 0-2.56-1.536-2.56-2.56l-4.608-50.688c-1.536-15.36-3.072-31.744-4.096-47.104-1.536-15.872-3.072-32.256-4.096-48.64 0-1.024 0-2.048-0.512-3.584 4.096-1.024 7.168-1.536 11.264-1.536 10.24 0 20.48 0 30.72 0.512 2.56 0 4.096 2.048 4.096 4.096 0 5.12 0.512 10.24 0.512 15.36 0 23.552-0.512 48.128 0 71.68 0.512 19.456 1.024 37.888 1.536 57.344 0 1.024 0 2.56 0.512 4.608-11.264 0.512-22.016 1.024-32.768 0.512zM896 444.928h16.896c3.072 0 4.096 1.024 4.096 4.608v53.76c-6.656-0.512-13.824-0.512-20.992-1.024V444.928z m-116.224-6.656c2.048 0 3.072 1.024 3.584 3.584 1.536 17.92 3.584 35.328 5.12 53.76-6.656 1.024-13.312 1.024-20.48 1.536-2.56-19.456-5.12-38.912-7.168-58.368 6.656-0.512 12.8-0.512 18.944-0.512z m-27.648 3.072c2.56-0.512 2.048 2.048 2.56 3.584 0.512 6.656 1.536 12.8 2.048 19.456 1.024 10.24 2.56 19.968 3.584 30.208v4.096l-15.872 2.56c-3.584-18.944-6.656-37.376-10.24-56.832 5.632-1.024 11.776-2.56 17.92-3.072z m-3.072 183.808c-2.56 8.192-8.192 14.848-15.36 20.48-16.896 13.312-34.304 25.088-54.784 31.744-14.336 5.12-29.184 8.192-44.032 10.752-19.456 3.072-39.424 4.096-59.392 6.144-4.096 0.512-8.192 0-12.288 0-2.048 0-2.56-1.024-2.56-3.072 0-8.704-1.024-17.92-1.536-27.136-1.024-11.776-2.048-23.04-3.584-34.816-2.048-16.384-4.096-32.256-5.632-48.64-2.048-16.896-4.096-34.304-6.144-51.2-2.048-16.896-3.584-33.28-5.632-49.664-2.56-18.944-5.12-37.376-8.192-56.832-3.072-22.016-7.168-44.544-12.8-66.56 0-1.024 1.024-3.072 1.536-3.584 19.456-7.168 38.4-14.848 57.856-23.04 6.144-2.56 6.656-3.584 6.656 4.608 0 34.304 0 68.608 0.512 103.424 0.512 17.92 1.024 35.84 2.56 53.76 1.536 21.504 4.096 43.008 5.632 65.024 0 1.024 0.512 1.536 0.512 2.56 7.168-0.512 14.848-1.024 22.016-1.024 30.72-1.024 60.416 3.584 89.088 14.848 13.824 5.632 27.648 12.288 39.936 20.992 9.216 8.192 11.264 17.92 5.632 31.232z m26.112 45.056c-10.24-50.688-19.968-100.352-29.696-151.04 8.192-1.024 15.872-2.56 23.552-3.584 5.632-1.024 11.264-1.024 16.896-1.536 3.072-0.512 5.12 1.024 5.632 4.096 1.024 7.68 2.56 15.36 3.584 23.552 1.536 13.312 3.072 26.624 4.096 39.936 1.536 11.776 2.56 23.04 4.096 34.816 1.536 12.288 3.072 24.576 4.608 37.376 0.512 3.584 1.024 7.168 1.536 11.264-11.264 2.048-22.528 3.584-34.304 5.12z m83.456-14.848c-10.24-1.024-19.968-1.536-30.72-2.56-9.216-92.672-16.896-185.856-34.304-279.04 5.632-0.512 11.264-1.536 17.408-2.048 6.656-0.512 13.312-1.024 20.48-1.536 5.632-0.512 7.68 1.024 8.192 6.656l3.072 44.032c1.536 19.968 3.072 39.936 4.096 59.392 1.024 14.336 1.536 28.672 3.072 43.008 1.536 15.872 3.072 31.232 4.096 47.104 1.536 11.264 2.56 23.04 3.584 34.304 1.536 12.288 2.56 24.576 3.584 37.376l1.024 10.752c-1.024 2.56-1.536 3.072-3.584 2.56z m26.624-210.944c2.56 0 3.584 0.512 3.584 3.584-0.512 7.68 0 15.872 0 23.552v29.696c-5.632 0.512-11.264 1.024-16.384 1.536-1.536-18.944-3.072-37.888-4.608-58.368h17.408z m3.072 228.864c-1.024 0-2.56-1.536-2.56-2.56l-4.608-50.688c-1.536-15.36-3.072-31.744-4.096-47.104-1.536-15.872-3.072-32.256-4.096-48.64 0-1.024 0-2.048-0.512-3.584 4.096-1.024 7.168-1.536 11.264-1.536 10.24 0 20.48 0 30.72 0.512 2.56 0 4.096 2.048 4.096 4.096 0 5.12 0.512 10.24 0.512 15.36 0 23.552-0.512 48.128 0 71.68 0.512 19.456 1.024 37.888 1.536 57.344 0 1.024 0 2.56 0.512 4.608-11.776 0.512-22.528 1.024-32.768 0.512z" fill="#DD6DA6" p-id="16278"></path></svg>