<?xml version="1.0" standalone="no"?><!DOCTYPE svg PUBLIC "-//W3C//DTD SVG 1.1//EN" "http://www.w3.org/Graphics/SVG/1.1/DTD/svg11.dtd"><svg t="1547543863835" class="icon" style="" viewBox="0 0 1024 1024" version="1.1" xmlns="http://www.w3.org/2000/svg" p-id="16165" xmlns:xlink="http://www.w3.org/1999/xlink" width="400" height="400"><defs><style type="text/css"></style></defs><path d="M512 1024C229.236364 1024 0 794.763636 0 512S229.236364 0 512 0s512 229.236364 512 512-229.236364 512-512 512z m-129.861818-756.48s-36.212364 2.094545-48.989091 24.482909c-12.8 22.365091-54.318545 137.378909-54.318546 137.378909s13.847273 6.376727 37.28291-10.658909c23.435636-17.035636 30.882909-46.848 30.882909-46.848l42.589091-2.117818 1.070545 121.390545s-73.495273-1.070545-88.413091 0c-14.894545 1.047273-23.412364 40.448-23.412364 40.448h111.825455s-9.588364 67.095273-38.353455 116.084364c-28.741818 48.989091-83.060364 87.319273-83.060363 87.319273s39.424 15.965091 77.730909-6.4c38.353455-22.341818 66.629818-120.692364 66.629818-120.692364l89.925818 110.056727s8.192-52.386909-1.466182-67.188363c-9.658182-14.778182-62.208-74.286545-62.208-74.286546l-22.946909 20.247273 16.337455-65.117091h97.954909s0-38.353455-19.153455-40.494545c-19.176727-2.094545-78.801455 0-78.801454 0V371.898182h88.389818s-1.070545-39.400727-18.106182-39.400727h-143.755636l22.341818-64.954182z m169.984 61.184v358.562909h36.002909l13.102545 45.009455 63.348364-45.009455h89.064727V328.704h-201.518545z" fill="#0f84fd" p-id="16166"></path><path d="M594.781091 368.64h117.899636v277.876364h-41.890909l-53.364363 40.261818-11.636364-40.261818h-11.008V368.64z" fill="#0f84fd" p-id="16167"></path></svg>