<?xml version="1.0" standalone="no"?><!DOCTYPE svg PUBLIC "-//W3C//DTD SVG 1.1//EN" "http://www.w3.org/Graphics/SVG/1.1/DTD/svg11.dtd"><svg t="1547543874130" class="icon" style="" viewBox="0 0 1024 1024" version="1.1" xmlns="http://www.w3.org/2000/svg" p-id="16498" xmlns:xlink="http://www.w3.org/1999/xlink" width="400" height="400"><defs><style type="text/css"></style></defs><path d="M511.8 0.6C229.2 0.6 0.1 229.7 0.1 512.3S229.2 1024 511.8 1024s511.7-229.1 511.7-511.7S794.4 0.6 511.8 0.6z m264.9 375.3c-0.1 0.1-0.1 0.2-0.2 0.3h0.2c-9 14.3-21.2 28.8-34.2 39.2-5.2 4.2-10.5 8.3-15.7 12.5v0.5c0.3 22.9-0.3 44.9-4.7 64.2-25.2 113.1-91.9 189.9-197.4 222.8-37.9 11.8-99.1 16.7-142.6 5.9-21.5-5.4-41-11.4-59.3-19.3-10.2-4.5-19.6-9.3-28.5-14.7l-8.8-5.3h0.5l-0.5-0.3c9.8 0.2 21.3 2.9 32.2 1.2 9.8-1.6 19.6-1.2 28.7-3.2 22.7-5 43-11.6 60.4-21.8 8.3-4.8 20.9-10.6 27-17.6-11.2 0.2-21.4-2.4-29.7-5.4-32.6-11.5-51.6-32.7-63.9-64.4h0.1c0-0.1-0.1-0.2-0.1-0.3 9.7 1.1 37.3 3.5 44.6-1.7-12.3-0.8-24.1-7.9-32.5-13.2-26.2-16.4-47.6-43.9-47.4-86.2v-0.3c3.5 1.7 6.9 3.3 10.4 4.9 6.6 2.8 13.3 4.3 21.1 5.9 3.1 0.7 9.3 2.4 13.2 1.4-5.1-5.8-13.2-9.7-18.4-16-14.7-18.3-28.7-45.3-25.2-77.4 0.5-4.7 1.3-9.4 2.6-14.3 2.5-9.7 6.5-18.3 10.8-26.2 0.2 0.1 0.4 0.2 0.5 0.3 2 4.2 6.4 7.2 9.1 10.6 8.6 10.7 19.2 20.3 30 28.7 36.7 28.7 69.9 46.4 123.1 59.5 13.5 3.3 29 5.9 45.1 5.9-1.9-5.8-2.7-13-2.7-20.5 0-9.7 1.3-19.6 3.3-26.8 9-32.1 28.5-55.2 57-67.6 6.9-3 14.4-5.2 22.4-6.9 4.1-0.6 8.2-1.1 12.3-1.6 39-0.7 59.8 13.5 79.6 31.6 16.8-1.4 38.7-10.8 51.6-17.4l12.6-6.9c0 0.1-0.1 0.3-0.1 0.4l0.1-0.1c-7.3 19.9-17.4 35.5-32.7 47.3-3.1 2.4-6.3 5.6-10 7.4 21.5-0.4 39.3-10 56.1-15.4v0.3z" fill="#2EB1EB" p-id="16499"></path><path d="M719.7 391.1s0.1 0 0.1-0.1c0 0-0.1 0-0.1 0.1zM726.8 428.4v-0.5 0.5zM336.4 479.9c3.3 0.7 9.9 2.7 13.8 1.2h-0.5l-0.1-0.1c-3.9 1-10.1-0.7-13.2-1.4-7.8-1.6-14.5-3.1-21.1-5.9-3.5-1.6-6.9-3.2-10.4-4.9v0.3c3.4 1.6 6.9 3.2 10.4 4.9 6.6 2.8 13.3 4.3 21.1 5.9zM719.6 391.4v0.2c21.9-0.2 39.8-10.1 56.9-15.4 0.1-0.1 0.1-0.2 0.2-0.3v-0.3c-16.9 5.3-34.6 14.9-56.1 15.4-0.4 0.1-0.7 0.3-1 0.4zM584.8 337.5c6.9-3 14.4-5.1 22.4-6.9 4.1-0.6 8.2-1 12.3-1.6 39-0.7 59.8 13.5 79.6 31.6 16.8-1.4 38.7-10.8 51.6-17.4 4.2-2.3 8.3-4.5 12.5-6.8 0-0.1 0.1-0.3 0.1-0.4l-12.6 6.9c-12.9 6.6-34.8 16-51.6 17.4-19.8-18.1-40.6-32.3-79.6-31.6-4.1 0.5-8.2 1-12.3 1.6-8 1.7-15.5 3.9-22.4 6.9-28.5 12.4-48 35.5-57 67.6-2 7.2-3.4 17.2-3.3 26.8 0-9.6 1.3-19.4 3.3-26.5 9-32.1 28.5-55.2 57-67.6zM385.2 568.5h-0.4c-7.3 5.2-34.9 2.8-44.6 1.7 0 0.1 0.1 0.2 0.1 0.3 10 1.1 38.2 3.6 44.9-2zM319.4 347.4c0.1 0.1 0.3 0.1 0.5 0.3 2 4.1 6.3 7.1 9.1 10.6 8.6 10.6 19.2 20.2 30 28.7 36.8 28.7 69.9 46.4 123.1 59.5 13.5 3.3 29.1 5.9 45.2 5.9 0-0.1-0.1-0.2-0.1-0.3-16.1 0-31.6-2.6-45.1-5.9-53.2-13.1-86.4-30.8-123.1-59.5-10.8-8.4-21.4-18-30-28.7-2.7-3.4-7.1-6.4-9.1-10.6-0.1-0.1-0.3-0.2-0.5-0.3-4.3 7.9-8.3 16.5-10.8 26.2-1.3 4.9-2.1 9.6-2.6 14.3 0.5-4.6 1.3-9.2 2.6-14 2.5-9.7 6.5-18.3 10.8-26.2zM317.7 683.2c9.9-1.6 19.6-1.2 28.7-3.2 22.8-5 43-11.6 60.4-21.8 8.4-4.9 21.3-10.8 27.3-17.9h-0.3c-6.1 7-18.7 12.8-27 17.6-17.4 10.2-37.7 16.8-60.4 21.8-9.1 2-18.9 1.6-28.7 3.2-10.9 1.7-22.4-1-32.2-1.2l0.5 0.3c9.7 0.4 21 2.9 31.7 1.2z" fill="#FFFFFF" p-id="16500"></path></svg>